<svg width="163" height="35" viewBox="0 0 163 35" fill="none" xmlns="http://www.w3.org/2000/svg">
<path d="M42.61 16.6638H45.0017C45.3917 16.6638 45.5997 16.4558 45.5997 16.0659V11.0485C45.5997 9.1507 46.8735 8.47478 48.2254 8.52677C48.5373 8.52677 48.6933 8.34479 48.6933 7.95484V5.14717C48.6933 4.75722 48.4853 4.49725 48.0694 4.57524C46.8995 4.75722 45.9376 5.45913 45.5997 6.65499V5.38114C45.5997 4.99119 45.3917 4.78321 45.0017 4.78321H42.61C42.2201 4.78321 42.0121 4.99119 42.0121 5.38114V16.0919C42.0121 16.4558 42.2201 16.6638 42.61 16.6638Z" fill="#7E63B6"/>
<path d="M55.6083 17.0012C59.1179 17.0012 61.8996 14.2715 61.8996 10.71C61.8996 7.17438 59.0919 4.4187 55.6083 4.4187C52.0987 4.4187 49.3171 7.14838 49.3171 10.71C49.2911 14.2455 52.0987 17.0012 55.6083 17.0012ZM55.6083 7.90229C57.1421 7.90229 58.338 9.02016 58.338 10.71C58.338 12.3998 57.1421 13.5176 55.6083 13.5176C54.0745 13.5176 52.8786 12.3998 52.8786 10.71C52.8786 9.02016 54.0485 7.90229 55.6083 7.90229Z" fill="#7E63B6"/>
<path d="M76.405 10.7107C76.405 7.17516 73.8313 4.41948 70.7117 4.41948C69.1258 4.41948 67.956 4.96541 67.1761 5.87531V0.597929C67.1761 0.207974 66.9681 0 66.5781 0H64.1864C63.7965 0 63.5885 0.207974 63.5885 0.597929V16.0661C63.5885 16.4561 63.7965 16.664 64.1864 16.664H66.5781C66.9681 16.664 67.1761 16.4561 67.1761 16.0661V15.5462C67.982 16.4561 69.1258 17.002 70.7117 17.002C73.8313 17.002 76.405 14.2463 76.405 10.7107ZM70.0097 13.6224C68.3719 13.6224 67.1761 12.5045 67.1761 10.7107C67.1761 8.91695 68.3719 7.79908 70.0097 7.79908C71.6476 7.79908 72.8434 8.91695 72.8434 10.7107C72.8434 12.5045 71.6476 13.6224 70.0097 13.6224Z" fill="#7E63B6"/>
<path d="M90.0801 10.71C90.0801 7.17438 87.2724 4.4187 83.7888 4.4187C80.2792 4.4187 77.4976 7.14838 77.4976 10.71C77.4976 14.2455 80.3052 17.0012 83.7888 17.0012C87.2724 17.0012 90.0801 14.2455 90.0801 10.71ZM83.7888 13.5176C82.255 13.5176 81.0591 12.3998 81.0591 10.71C81.0591 9.02016 82.255 7.90229 83.7888 7.90229C85.3226 7.90229 86.5185 9.02016 86.5185 10.71C86.5185 12.3998 85.3226 13.5176 83.7888 13.5176Z" fill="#7E63B6"/>
<path d="M57.3494 21.3961H54.7757C54.4118 21.3961 54.2038 21.5261 54.0998 21.8901L52.358 28.3893L50.3303 21.8901C50.2263 21.5521 49.9923 21.3961 49.6543 21.3961H47.8086C47.3926 21.3961 47.1846 21.6561 47.3146 22.072L48.0685 24.4378L46.7167 28.8052L44.8709 21.9161C44.7669 21.5521 44.5329 21.4221 44.195 21.4221H41.6213C41.2053 21.4221 40.9974 21.6821 41.1273 22.098L44.5589 32.8348C44.6629 33.1727 44.9229 33.3287 45.2609 33.3287H46.0408H47.5486C47.8865 33.3287 48.1465 33.1727 48.2505 32.8348L49.4984 28.8832L50.7722 32.8348C50.8762 33.1727 51.1362 33.3287 51.4741 33.3287H51.7601H53.7619C54.0998 33.3287 54.3598 33.1727 54.4638 32.8348L57.8954 22.098C57.9734 21.6561 57.7654 21.3961 57.3494 21.3961Z" fill="#7E63B6"/>
<path d="M68.8138 21.3961H66.4221C66.0321 21.3961 65.8241 21.6041 65.8241 21.994V28.3373C65.8241 29.7411 65.1482 30.3391 64.0823 30.3391C63.1724 30.3391 62.4965 29.8191 62.4965 28.6233V21.994C62.4965 21.6041 62.2885 21.3961 61.8986 21.3961H59.5069C59.1169 21.3961 58.9089 21.6041 58.9089 21.994V28.9352C58.9089 31.8989 60.4948 33.6147 62.7045 33.6147C64.2383 33.6147 65.2262 33.0167 65.7981 32.1848V32.6788C65.7981 33.0687 66.0061 33.2767 66.3961 33.2767H68.7878C69.1777 33.2767 69.3857 33.0687 69.3857 32.6788V21.968C69.4117 21.6301 69.2037 21.3961 68.8138 21.3961Z" fill="#7E63B6"/>
<path d="M78.4326 21.0802C76.9247 21.0802 75.9109 21.6781 75.3389 22.51V22.0161C75.3389 21.6261 75.1309 21.4182 74.741 21.4182H72.3493C71.9593 21.4182 71.7513 21.6261 71.7513 22.0161V32.7268C71.7513 33.1168 71.9593 33.3248 72.3493 33.3248H74.741C75.1309 33.3248 75.3389 33.1168 75.3389 32.7268V26.3836C75.3389 24.9797 76.0148 24.3818 77.0807 24.3818C77.9906 24.3818 78.6665 24.9018 78.6665 26.0976V32.7268C78.6665 33.1168 78.8745 33.3248 79.2645 33.3248H81.6562C82.0461 33.3248 82.2541 33.1168 82.2541 32.7268V25.7856C82.2281 22.77 80.6423 21.0802 78.4326 21.0802Z" fill="#7E63B6"/>
<path d="M95.9804 16.6396H93.6147C93.2247 16.6396 93.0167 16.8476 93.0167 17.2376V22.515C92.2108 21.6051 91.067 21.0591 89.4812 21.0591C86.3615 21.0591 83.7878 23.7888 83.7878 27.3504C83.7878 30.886 86.3615 33.6416 89.4812 33.6416C91.067 33.6416 92.2368 33.0957 93.0167 32.1858V32.7058C93.0167 33.0957 93.2247 33.3037 93.6147 33.3037H96.0064C96.3963 33.3037 96.6043 33.0957 96.6043 32.7058V17.2376C96.5783 16.8736 96.3703 16.6396 95.9804 16.6396ZM90.1831 30.262C88.5453 30.262 87.3494 29.1442 87.3494 27.3504C87.3494 25.5566 88.5453 24.4387 90.1831 24.4387C91.8209 24.4387 93.0167 25.5566 93.0167 27.3504C93.0167 29.1442 91.8209 30.262 90.1831 30.262Z" fill="#7E63B6"/>
<path d="M104.716 21.0802C100.947 21.0802 98.3469 23.8099 98.3469 27.3715C98.3469 30.907 100.869 33.6627 104.82 33.6627C107.238 33.6627 109.188 32.5968 110.124 30.5171C110.306 30.1271 110.072 29.8412 109.656 29.8412L107.368 29.8672C107.056 29.8672 106.874 29.9972 106.64 30.1791C106.224 30.5431 105.548 30.7771 104.872 30.7771C103.624 30.7771 102.532 30.2051 102.09 28.8013H107.134H110.046C110.41 28.8013 110.643 28.6453 110.695 28.2554C110.721 27.9694 110.747 27.6834 110.747 27.3715C110.721 23.7579 108.2 21.0802 104.716 21.0802ZM102.064 26.0716C102.428 24.8758 103.364 24.2518 104.69 24.2518C105.73 24.2518 106.796 24.7198 107.16 26.0716H102.064Z" fill="#7E63B6"/>
<path d="M118.468 21.2148C117.298 21.3968 116.336 22.0987 115.998 23.2946V22.0207C115.998 21.6308 115.79 21.4228 115.4 21.4228H113.009C112.619 21.4228 112.411 21.6308 112.411 22.0207V32.7315C112.411 33.1215 112.619 33.3294 113.009 33.3294H115.4C115.79 33.3294 115.998 33.1215 115.998 32.7315V27.7141C115.998 25.8163 117.272 25.1404 118.624 25.1924C118.936 25.1924 119.092 25.0104 119.092 24.6204V21.8128C119.092 21.3968 118.884 21.1369 118.468 21.2148Z" fill="#7E63B6"/>
<path d="M127.282 27.3511L130.792 22.1257C131.052 21.7097 130.896 21.4238 130.402 21.4238H127.672C127.36 21.4238 127.126 21.5537 126.97 21.8137L123.903 26.5972V17.2643C123.903 16.8743 123.695 16.6663 123.305 16.6663H120.913C120.523 16.6663 120.315 16.8743 120.315 17.2643V32.7324C120.315 33.1224 120.523 33.3304 120.913 33.3304H123.305C123.695 33.3304 123.903 33.1224 123.903 32.7324V28.105L127.204 32.9404C127.36 33.2004 127.62 33.3304 127.906 33.3304H130.61C131.078 33.3304 131.26 33.0184 130.974 32.6284L127.282 27.3511Z" fill="#7E63B6"/>
<path d="M135.263 21.3961H132.871C132.481 21.3961 132.273 21.6041 132.273 21.994V32.7048C132.273 33.0947 132.481 33.3027 132.871 33.3027H135.263C135.653 33.3027 135.861 33.0947 135.861 32.7048V21.994C135.861 21.6301 135.627 21.3961 135.263 21.3961Z" fill="#7E63B6"/>
<path d="M135.263 16.6396H132.871C132.481 16.6396 132.273 16.8476 132.273 17.2376V19.3693C132.273 19.7593 132.481 19.9673 132.871 19.9673H135.263C135.653 19.9673 135.861 19.7593 135.861 19.3693V17.2376C135.861 16.8736 135.627 16.6396 135.263 16.6396Z" fill="#7E63B6"/>
<path d="M144.828 21.0802C143.294 21.0802 142.306 21.6781 141.734 22.51V22.0161C141.734 21.6261 141.526 21.4182 141.136 21.4182H138.745C138.355 21.4182 138.147 21.6261 138.147 22.0161V32.7268C138.147 33.1168 138.355 33.3248 138.745 33.3248H141.136C141.526 33.3248 141.734 33.1168 141.734 32.7268V26.3836C141.734 24.9797 142.41 24.3818 143.476 24.3818C144.386 24.3818 145.062 24.9018 145.062 26.0976V32.7268C145.062 33.1168 145.27 33.3248 145.66 33.3248H148.052C148.442 33.3248 148.65 33.1168 148.65 32.7268V25.7856C148.65 22.77 147.038 21.0802 144.828 21.0802Z" fill="#7E63B6"/>
<path d="M162.402 16.6396H160.01C159.62 16.6396 159.412 16.8476 159.412 17.2376V22.515C158.606 21.6051 157.462 21.0591 155.877 21.0591C152.757 21.0591 150.183 23.7888 150.183 27.3504C150.183 30.886 152.757 33.6416 155.877 33.6416C157.462 33.6416 158.632 33.0957 159.412 32.1858V32.7058C159.412 33.0957 159.62 33.3037 160.01 33.3037H162.402C162.792 33.3037 163 33.0957 163 32.7058V17.2376C163 16.8736 162.792 16.6396 162.402 16.6396ZM156.604 30.262C154.967 30.262 153.771 29.1442 153.771 27.3504C153.771 25.5566 154.967 24.4387 156.604 24.4387C158.242 24.4387 159.438 25.5566 159.438 27.3504C159.438 29.1442 158.242 30.262 156.604 30.262Z" fill="#7E63B6"/>
<path d="M12.5825 19.3671H1.40384C0.623928 19.3671 0 19.991 0 20.7709V31.9496C0 32.7295 0.623928 33.3534 1.40384 33.3534H12.5825C13.3624 33.3534 13.9864 32.7295 13.9864 31.9496V20.7709C13.9864 19.991 13.3624 19.3671 12.5825 19.3671Z" fill="#7E63B6"/>
<path d="M23.7616 18.6629C19.5241 18.6629 16.0665 22.0945 16.0665 26.358C16.0665 30.5955 19.4981 34.0531 23.7616 34.0531C27.9991 34.0531 31.4567 30.6215 31.4567 26.358C31.4567 22.1205 27.9991 18.6629 23.7616 18.6629Z" fill="#7E63B6"/>
<path d="M1.40384 16.5847H23.7612C27.6088 16.5847 30.7544 13.465 30.7544 9.5915C30.7544 5.74395 27.6348 2.59833 23.7612 2.59833H1.40384C0.623927 2.59833 0 3.22225 0 4.00216V15.1808C0 15.9607 0.623927 16.5847 1.40384 16.5847ZM23.7612 6.78383C25.295 6.78383 26.5429 8.03169 26.5429 9.56551C26.5429 11.0993 25.295 12.3472 23.7612 12.3472C22.2274 12.3472 20.9535 11.0993 20.9535 9.56551C20.9795 8.03169 22.2274 6.78383 23.7612 6.78383ZM18.1979 9.5915C18.1979 11.1253 16.95 12.3992 15.3902 12.3992C13.8564 12.3992 12.6085 11.1513 12.6085 9.5915H18.1979ZM6.99318 6.78383C8.527 6.78383 9.77485 8.03169 9.77485 9.56551C9.77485 11.0993 8.527 12.3472 6.99318 12.3472C5.45936 12.3472 4.18551 11.0993 4.18551 9.56551C4.2115 8.03169 5.45936 6.78383 6.99318 6.78383Z" fill="#7E63B6"/>
</svg>
