<svg width="34" height="34" viewBox="0 0 34 34" fill="none" xmlns="http://www.w3.org/2000/svg">
<path fill-rule="evenodd" clip-rule="evenodd" d="M33.6666 16.9999C33.6666 7.79517 26.2047 0.333252 17 0.333252C7.79523 0.333252 0.333313 7.79517 0.333313 16.9999C0.333313 26.2047 7.79523 33.6666 17 33.6666C26.2047 33.6666 33.6666 26.2047 33.6666 16.9999ZM30.2167 15.3332H25.3333V15.3332C25.0584 11.4135 23.7154 7.64381 21.45 4.43323C26.1965 6.11899 29.5879 10.3357 30.2167 15.3332V15.3332ZM12.1333 18.6666H22L22 18.6666C21.5734 22.7842 19.8184 26.6512 17 29.6832C14.1834 26.6639 12.4686 22.7821 12.1333 18.6666L12.1333 18.6666ZM12.1333 15.3332V15.3332C12.5214 11.2362 14.2293 7.37605 17 4.33319V4.33319C19.8412 7.34339 21.6002 11.2133 22 15.3332L12.1333 15.3332ZM12.7333 4.38337C10.4559 7.61174 9.09132 11.3946 8.78332 15.3334H3.78332L3.78332 15.3334C4.42571 10.2715 7.90055 6.0202 12.7333 4.38337L12.7333 4.38337ZM3.78332 18.6666H8.78332L8.78332 18.6666C9.0578 22.602 10.4131 26.3854 12.7 29.5999H12.7C7.88515 27.9553 4.42602 23.7138 3.78332 18.6666L3.78332 18.6666ZM21.3666 29.5833C23.6473 26.3677 25.0177 22.5962 25.3333 18.6666H30.25C29.607 23.6992 26.1636 27.9309 21.3666 29.5833Z" fill="#9882C4"/>
</svg>
